# xmcd
#
# Track frame offsets:
#	150
#	10262
#	23485
#	34845
#	46150
#	57870
#	68075
#	79732
#	92637
#	103455
#	114327
#	126870
#	146610
#	160412
#	172602
#
# Disc length: 2541 seconds
#
# Revision: 0
# Processed by: cddbd v1.5.1PL0 Copyright (c) Steve Scherf et al.
# Submitted via: audiograbber 1.83.01
#
DISCID=b909eb0f
DTITLE=Various Artist - Classic Country Late 60's
DYEAR=1900
DGENRE=Classic Country
TTITLE0=Eddy Arnold - The Last Word in Lonesome Is Me
TTITLE1=David Houston - Almost Persuaded
TTITLE2=Buck Owens - Cryin' Time
TTITLE3=Sonny James - Take Good Care of Her
TTITLE4=Marty Robbins - Ribbon Of Darkness
TTITLE5=Jim Reeves - Is It Really Over
TTITLE6=Jack Greene - There Goes My Everything
TTITLE7=Conway Twitty - Next In Line
TTITLE8=Porter Wagoner and Dolly Parton - Just Someone I Used To Know
TTITLE9=Porter Wagoner - Green, Green Grass of Home
TTITLE10=Jim Reeves - Blue Side of Lonesome
TTITLE11=Elvis Presley, Ronnie Milsap and Jeannie Green - Suspicious Minds
TTITLE12=Charley Pride - All I Have to Offer You (Is Me)
TTITLE13=Glen Cambell - Galveston
TTITLE14=Bobby Goldsboro - Honey
EXTD=
EXTT0=
EXTT1=
EXTT2=
EXTT3=
EXTT4=
EXTT5=
EXTT6=
EXTT7=
EXTT8=
EXTT9=
EXTT10=
EXTT11=
EXTT12=
EXTT13=
EXTT14=
PLAYORDER=
